<svg width="1200" height="750" viewBox="0 0 1200 750" fill="none" xmlns="http://www.w3.org/2000/svg">
  <defs>
    <linearGradient id="bg" x1="180" y1="80" x2="1040" y2="670" gradientUnits="userSpaceOnUse">
      <stop stop-color="#06B6D4" stop-opacity="0.18"/>
      <stop offset="1" stop-color="#3B82F6" stop-opacity="0.18"/>
    </linearGradient>
    <linearGradient id="g" x1="360" y1="220" x2="860" y2="520" gradientUnits="userSpaceOnUse">
      <stop stop-color="#06B6D4"/>
      <stop offset="1" stop-color="#3B82F6"/>
    </linearGradient>
  </defs>

  <rect width="1200" height="750" rx="40" fill="url(#bg)"/>
  <circle cx="250" cy="220" r="140" fill="#06B6D4" fill-opacity="0.20"/>
  <circle cx="980" cy="500" r="180" fill="#3B82F6" fill-opacity="0.18"/>

  <rect x="330" y="190" width="540" height="370" rx="28" fill="white"/>
  <rect x="360" y="230" width="240" height="18" rx="9" fill="#0F172A" fill-opacity="0.10"/>
  <rect x="360" y="265" width="340" height="14" rx="7" fill="#0F172A" fill-opacity="0.08"/>

  <rect x="360" y="320" width="480" height="170" rx="20" fill="#0F172A" fill-opacity="0.04"/>
  <rect x="390" y="355" width="190" height="18" rx="9" fill="url(#g)"/>
  <rect x="390" y="388" width="320" height="14" rx="7" fill="#0F172A" fill-opacity="0.08"/>
  <rect x="390" y="418" width="280" height="14" rx="7" fill="#0F172A" fill-opacity="0.07"/>

  <rect x="360" y="515" width="200" height="18" rx="9" fill="#0F172A" fill-opacity="0.08"/>
  <rect x="575" y="510" width="265" height="28" rx="14" fill="url(#g)"/>
  <path d="M612 524h190" stroke="white" stroke-width="4" stroke-linecap="round" opacity="0.9"/>
</svg>
