<svg xmlns="http://www.w3.org/2000/svg" width="512" height="512" viewBox="0 0 512 512" role="img" aria-label="Storefront">
  <defs>
    <linearGradient id="awning" x1="0" x2="1" y1="0" y2="0">
      <stop offset="0" stop-color="#f59e0b" />
      <stop offset="0.2" stop-color="#f59e0b" />
      <stop offset="0.2" stop-color="#fde68a" />
      <stop offset="0.4" stop-color="#fde68a" />
      <stop offset="0.4" stop-color="#f59e0b" />
      <stop offset="0.6" stop-color="#f59e0b" />
      <stop offset="0.6" stop-color="#fde68a" />
      <stop offset="0.8" stop-color="#fde68a" />
      <stop offset="0.8" stop-color="#f59e0b" />
      <stop offset="1" stop-color="#f59e0b" />
    </linearGradient>
    <linearGradient id="glass" x1="0" x2="1" y1="0" y2="1">
      <stop offset="0" stop-color="#bfdbfe" />
      <stop offset="1" stop-color="#93c5fd" />
    </linearGradient>
    <linearGradient id="roof" x1="0" x2="0" y1="0" y2="1">
      <stop offset="0" stop-color="#f8fafc" />
      <stop offset="1" stop-color="#e2e8f0" />
    </linearGradient>
  </defs>
  <rect width="512" height="512" fill="#ffffff" />
  <rect x="72" y="120" width="368" height="52" rx="12" fill="url(#roof)" stroke="#d1d5db" />
  <rect x="116" y="130" width="280" height="32" rx="8" fill="#ffffff" stroke="#e5e7eb" />
  <text x="256" y="152" text-anchor="middle" font-family="Arial, sans-serif" font-size="20" font-weight="700" fill="#a16207">STORE</text>

  <rect x="64" y="172" width="384" height="80" rx="8" fill="url(#awning)" stroke="#f59e0b" />
  <rect x="72" y="252" width="368" height="192" rx="16" fill="#f8fafc" stroke="#e2e8f0" />

  <rect x="104" y="282" width="230" height="120" rx="10" fill="url(#glass)" stroke="#60a5fa" />
  <rect x="120" y="300" width="198" height="10" rx="4" fill="#e0f2fe" opacity="0.7" />
  <rect x="120" y="320" width="198" height="10" rx="4" fill="#e0f2fe" opacity="0.7" />
  <rect x="120" y="340" width="198" height="10" rx="4" fill="#e0f2fe" opacity="0.7" />

  <rect x="352" y="282" width="72" height="120" rx="10" fill="#fef3c7" stroke="#f59e0b" />
  <rect x="366" y="300" width="44" height="84" rx="6" fill="#f59e0b" opacity="0.25" />
  <circle cx="410" cy="340" r="4" fill="#92400e" />

  <rect x="72" y="432" width="368" height="16" rx="8" fill="#cbd5f5" />
  <rect x="96" y="430" width="320" height="8" rx="4" fill="#e2e8f0" />
</svg>
